# xmcd CD database file
#
# Track frame offsets:
#	150
#	2925
#	25725
#
# Disc length: 623 seconds
#
# Revision: 1
# Processed by: cddbd v1.5.1PL2 Copyright (c) Steve Scherf et al.
# Submitted via: freeDBTagger 0.8.2.1
#
DISCID=18026d03
DTITLE=浜田省吾 - Thank You
DYEAR=2005
DGENRE=rock
TTITLE0=Thank you
TTITLE1=あの娘は誰
TTITLE2=さよならの前に
EXTD=SECL-221 05/10/12
EXTT0=
EXTT1=
EXTT2=
PLAYORDER=
